<mxfile host="app.diagrams.net" modified="2023-10-19T04:37:08.426Z" agent="Mozilla/5.0 (Windows NT 10.0; Win64; x64) AppleWebKit/537.36 (KHTML, like Gecko) Chrome/117.0.0.0 Safari/537.36" etag="32J-QGXKfJDX4qQamdNW" version="21.3.4" type="device">
  <diagram name="Page-1" id="4j0HkpreP9iEHoi3xM4y">
    <mxGraphModel dx="1326" dy="692" grid="1" gridSize="10" guides="1" tooltips="1" connect="1" arrows="1" fold="1" page="1" pageScale="1" pageWidth="850" pageHeight="1100" math="0" shadow="0">
      <root>
        <mxCell id="0" />
        <mxCell id="1" parent="0" />
        <mxCell id="QhxZjhNTOZm1jVaaefjh-6" style="edgeStyle=orthogonalEdgeStyle;rounded=0;orthogonalLoop=1;jettySize=auto;html=1;entryX=1;entryY=0.75;entryDx=0;entryDy=0;" edge="1" parent="1" source="QhxZjhNTOZm1jVaaefjh-1" target="QhxZjhNTOZm1jVaaefjh-4">
          <mxGeometry relative="1" as="geometry">
            <Array as="points">
              <mxPoint x="230" y="85" />
              <mxPoint x="230" y="85" />
            </Array>
          </mxGeometry>
        </mxCell>
        <mxCell id="QhxZjhNTOZm1jVaaefjh-10" style="edgeStyle=orthogonalEdgeStyle;rounded=0;orthogonalLoop=1;jettySize=auto;html=1;entryX=0.663;entryY=0.031;entryDx=0;entryDy=0;entryPerimeter=0;" edge="1" parent="1" source="QhxZjhNTOZm1jVaaefjh-1" target="QhxZjhNTOZm1jVaaefjh-7">
          <mxGeometry relative="1" as="geometry">
            <Array as="points">
              <mxPoint x="370" y="120" />
              <mxPoint x="370" y="120" />
            </Array>
          </mxGeometry>
        </mxCell>
        <object label="User" id="QhxZjhNTOZm1jVaaefjh-1">
          <mxCell style="rounded=1;whiteSpace=wrap;html=1;" vertex="1" parent="1">
            <mxGeometry x="290" y="40" width="120" height="60" as="geometry" />
          </mxCell>
        </object>
        <mxCell id="QhxZjhNTOZm1jVaaefjh-5" style="edgeStyle=orthogonalEdgeStyle;rounded=0;orthogonalLoop=1;jettySize=auto;html=1;exitX=0.5;exitY=1;exitDx=0;exitDy=0;exitPerimeter=0;" edge="1" parent="1" source="QhxZjhNTOZm1jVaaefjh-2" target="QhxZjhNTOZm1jVaaefjh-3">
          <mxGeometry relative="1" as="geometry">
            <mxPoint x="530" y="100" as="targetPoint" />
          </mxGeometry>
        </mxCell>
        <mxCell id="QhxZjhNTOZm1jVaaefjh-11" style="edgeStyle=orthogonalEdgeStyle;rounded=0;orthogonalLoop=1;jettySize=auto;html=1;entryX=1;entryY=0.5;entryDx=0;entryDy=0;" edge="1" parent="1" source="QhxZjhNTOZm1jVaaefjh-2" target="QhxZjhNTOZm1jVaaefjh-7">
          <mxGeometry relative="1" as="geometry" />
        </mxCell>
        <mxCell id="QhxZjhNTOZm1jVaaefjh-18" style="edgeStyle=orthogonalEdgeStyle;rounded=0;orthogonalLoop=1;jettySize=auto;html=1;entryX=1;entryY=0.5;entryDx=0;entryDy=0;" edge="1" parent="1" source="QhxZjhNTOZm1jVaaefjh-2" target="QhxZjhNTOZm1jVaaefjh-13">
          <mxGeometry relative="1" as="geometry" />
        </mxCell>
        <mxCell id="QhxZjhNTOZm1jVaaefjh-2" value="Admin" style="rounded=1;whiteSpace=wrap;html=1;" vertex="1" parent="1">
          <mxGeometry x="570" y="130" width="120" height="60" as="geometry" />
        </mxCell>
        <mxCell id="QhxZjhNTOZm1jVaaefjh-19" style="edgeStyle=orthogonalEdgeStyle;rounded=0;orthogonalLoop=1;jettySize=auto;html=1;" edge="1" parent="1" source="QhxZjhNTOZm1jVaaefjh-3" target="QhxZjhNTOZm1jVaaefjh-15">
          <mxGeometry relative="1" as="geometry" />
        </mxCell>
        <mxCell id="QhxZjhNTOZm1jVaaefjh-3" value="Stylist" style="rounded=1;whiteSpace=wrap;html=1;" vertex="1" parent="1">
          <mxGeometry x="570" y="340" width="120" height="60" as="geometry" />
        </mxCell>
        <mxCell id="QhxZjhNTOZm1jVaaefjh-12" style="edgeStyle=orthogonalEdgeStyle;rounded=0;orthogonalLoop=1;jettySize=auto;html=1;entryX=0;entryY=0.25;entryDx=0;entryDy=0;" edge="1" parent="1" source="QhxZjhNTOZm1jVaaefjh-4" target="QhxZjhNTOZm1jVaaefjh-1">
          <mxGeometry relative="1" as="geometry">
            <Array as="points">
              <mxPoint x="210" y="55" />
              <mxPoint x="210" y="55" />
            </Array>
          </mxGeometry>
        </mxCell>
        <mxCell id="QhxZjhNTOZm1jVaaefjh-4" value="Session ID" style="rounded=1;whiteSpace=wrap;html=1;" vertex="1" parent="1">
          <mxGeometry x="60" y="40" width="120" height="60" as="geometry" />
        </mxCell>
        <mxCell id="QhxZjhNTOZm1jVaaefjh-9" style="edgeStyle=orthogonalEdgeStyle;rounded=0;orthogonalLoop=1;jettySize=auto;html=1;entryX=0.5;entryY=1;entryDx=0;entryDy=0;" edge="1" parent="1" source="QhxZjhNTOZm1jVaaefjh-7" target="QhxZjhNTOZm1jVaaefjh-4">
          <mxGeometry relative="1" as="geometry">
            <Array as="points">
              <mxPoint x="120" y="140" />
            </Array>
          </mxGeometry>
        </mxCell>
        <mxCell id="QhxZjhNTOZm1jVaaefjh-14" style="edgeStyle=orthogonalEdgeStyle;rounded=0;orthogonalLoop=1;jettySize=auto;html=1;entryX=0.5;entryY=0;entryDx=0;entryDy=0;" edge="1" parent="1" source="QhxZjhNTOZm1jVaaefjh-7" target="QhxZjhNTOZm1jVaaefjh-13">
          <mxGeometry relative="1" as="geometry" />
        </mxCell>
        <mxCell id="QhxZjhNTOZm1jVaaefjh-23" style="edgeStyle=orthogonalEdgeStyle;rounded=0;orthogonalLoop=1;jettySize=auto;html=1;entryX=0.38;entryY=1.012;entryDx=0;entryDy=0;exitX=0.25;exitY=0;exitDx=0;exitDy=0;entryPerimeter=0;" edge="1" parent="1" source="QhxZjhNTOZm1jVaaefjh-7" target="QhxZjhNTOZm1jVaaefjh-1">
          <mxGeometry relative="1" as="geometry" />
        </mxCell>
        <mxCell id="QhxZjhNTOZm1jVaaefjh-7" value="User Data" style="rounded=1;whiteSpace=wrap;html=1;" vertex="1" parent="1">
          <mxGeometry x="290" y="130" width="120" height="60" as="geometry" />
        </mxCell>
        <mxCell id="QhxZjhNTOZm1jVaaefjh-20" style="edgeStyle=orthogonalEdgeStyle;rounded=0;orthogonalLoop=1;jettySize=auto;html=1;" edge="1" parent="1" source="QhxZjhNTOZm1jVaaefjh-13" target="QhxZjhNTOZm1jVaaefjh-15">
          <mxGeometry relative="1" as="geometry" />
        </mxCell>
        <mxCell id="QhxZjhNTOZm1jVaaefjh-13" value="User Request" style="rounded=1;whiteSpace=wrap;html=1;" vertex="1" parent="1">
          <mxGeometry x="290" y="230" width="120" height="60" as="geometry" />
        </mxCell>
        <mxCell id="QhxZjhNTOZm1jVaaefjh-22" style="edgeStyle=orthogonalEdgeStyle;rounded=0;orthogonalLoop=1;jettySize=auto;html=1;entryX=0;entryY=0.5;entryDx=0;entryDy=0;" edge="1" parent="1" source="QhxZjhNTOZm1jVaaefjh-15" target="QhxZjhNTOZm1jVaaefjh-7">
          <mxGeometry relative="1" as="geometry">
            <Array as="points">
              <mxPoint x="240" y="370" />
              <mxPoint x="240" y="160" />
            </Array>
          </mxGeometry>
        </mxCell>
        <mxCell id="QhxZjhNTOZm1jVaaefjh-15" value="Public Schedule" style="rounded=1;whiteSpace=wrap;html=1;" vertex="1" parent="1">
          <mxGeometry x="290" y="340" width="120" height="60" as="geometry" />
        </mxCell>
        <mxCell id="QhxZjhNTOZm1jVaaefjh-25" value="Confirms" style="text;html=1;strokeColor=none;fillColor=none;align=center;verticalAlign=middle;whiteSpace=wrap;rounded=0;" vertex="1" parent="1">
          <mxGeometry x="210" y="30" width="60" height="30" as="geometry" />
        </mxCell>
        <mxCell id="QhxZjhNTOZm1jVaaefjh-26" value="Accepts" style="text;html=1;strokeColor=none;fillColor=none;align=center;verticalAlign=middle;whiteSpace=wrap;rounded=0;" vertex="1" parent="1">
          <mxGeometry x="420" y="230" width="60" height="30" as="geometry" />
        </mxCell>
        <mxCell id="QhxZjhNTOZm1jVaaefjh-28" value="User Database" style="rounded=1;whiteSpace=wrap;html=1;" vertex="1" parent="1">
          <mxGeometry x="365" y="470" width="120" height="60" as="geometry" />
        </mxCell>
        <mxCell id="QhxZjhNTOZm1jVaaefjh-34" style="edgeStyle=orthogonalEdgeStyle;rounded=0;orthogonalLoop=1;jettySize=auto;html=1;" edge="1" parent="1" source="QhxZjhNTOZm1jVaaefjh-29" target="QhxZjhNTOZm1jVaaefjh-30">
          <mxGeometry relative="1" as="geometry" />
        </mxCell>
        <mxCell id="QhxZjhNTOZm1jVaaefjh-35" style="edgeStyle=orthogonalEdgeStyle;rounded=0;orthogonalLoop=1;jettySize=auto;html=1;" edge="1" parent="1" source="QhxZjhNTOZm1jVaaefjh-29" target="QhxZjhNTOZm1jVaaefjh-32">
          <mxGeometry relative="1" as="geometry" />
        </mxCell>
        <mxCell id="QhxZjhNTOZm1jVaaefjh-36" style="edgeStyle=orthogonalEdgeStyle;rounded=0;orthogonalLoop=1;jettySize=auto;html=1;" edge="1" parent="1" source="QhxZjhNTOZm1jVaaefjh-29" target="QhxZjhNTOZm1jVaaefjh-31">
          <mxGeometry relative="1" as="geometry" />
        </mxCell>
        <mxCell id="QhxZjhNTOZm1jVaaefjh-29" value="Perms:" style="rhombus;whiteSpace=wrap;html=1;" vertex="1" parent="1">
          <mxGeometry x="395" y="580" width="60" height="60" as="geometry" />
        </mxCell>
        <mxCell id="QhxZjhNTOZm1jVaaefjh-30" value="User" style="rounded=1;whiteSpace=wrap;html=1;" vertex="1" parent="1">
          <mxGeometry x="530" y="690" width="120" height="60" as="geometry" />
        </mxCell>
        <mxCell id="QhxZjhNTOZm1jVaaefjh-31" value="Admin" style="rounded=1;whiteSpace=wrap;html=1;" vertex="1" parent="1">
          <mxGeometry x="200" y="690" width="120" height="60" as="geometry" />
        </mxCell>
        <mxCell id="QhxZjhNTOZm1jVaaefjh-32" value="Stylist" style="rounded=1;whiteSpace=wrap;html=1;" vertex="1" parent="1">
          <mxGeometry x="365" y="690" width="120" height="60" as="geometry" />
        </mxCell>
        <mxCell id="QhxZjhNTOZm1jVaaefjh-37" value="" style="endArrow=classic;html=1;rounded=0;exitX=0.5;exitY=1;exitDx=0;exitDy=0;entryX=0.5;entryY=0;entryDx=0;entryDy=0;" edge="1" parent="1" source="QhxZjhNTOZm1jVaaefjh-28" target="QhxZjhNTOZm1jVaaefjh-29">
          <mxGeometry relative="1" as="geometry">
            <mxPoint x="340" y="660" as="sourcePoint" />
            <mxPoint x="440" y="660" as="targetPoint" />
          </mxGeometry>
        </mxCell>
        <mxCell id="QhxZjhNTOZm1jVaaefjh-38" value="Login" style="edgeLabel;resizable=0;html=1;align=center;verticalAlign=middle;" connectable="0" vertex="1" parent="QhxZjhNTOZm1jVaaefjh-37">
          <mxGeometry relative="1" as="geometry" />
        </mxCell>
      </root>
    </mxGraphModel>
  </diagram>
</mxfile>
